<svg width="192" height="192" viewBox="0 0 192 192" xmlns="http://www.w3.org/2000/svg">
  <!-- Background -->
  <rect width="192" height="192" fill="#1976d2" rx="44"/>
  
  <!-- Icon: Briefcase/Dashboard -->
  <g transform="translate(48, 48)">
    <path d="M96,10 L96,10 Q108,10 108,22 L108,86 Q108,98 96,98 L30,98 Q18,98 18,86 L18,22 Q18,10 30,10 M30,10 L30,0 M96,10 L96,0 M30,0 L96,0" 
          stroke="white" stroke-width="4" fill="none" stroke-linecap="round" stroke-linejoin="round"/>
    <rect x="18" y="36" width="12" height="36" fill="white" rx="2"/>
    <rect x="54" y="36" width="12" height="36" fill="white" rx="2"/>
    <rect x="90" y="36" width="12" height="36" fill="white" rx="2"/>
  </g>
</svg>
